<?xml version="1.0" encoding="UTF-8"?><svg id="Layer_2" xmlns="http://www.w3.org/2000/svg" viewBox="0 0 600 800"><defs><style>.cls-1{fill:#316879;stroke-width:0px;}</style></defs><g id="Layer_2-2"><g id="Layer_1-2"><path class="cls-1" d="M300,0C134.31,0,0,134.31,0,300c0,70.97,31.27,133.39,65.89,187.5l213.71,301.95c4.69,6.63,12.3,10.55,20.4,10.55s15.71-3.92,20.4-10.55l213.71-301.95c33.07-44.53,65.89-116.53,65.89-187.5C600,134.31,465.69,0,300,0ZM300,475c-96.65,0-175-78.35-175-175s78.35-175,175-175,175,78.35,175,175-78.35,175-175,175Z"/><path class="cls-1" d="M300,150c-82.84,0-150,67.16-150,150s67.16,150,150,150,150-67.16,150-150-67.16-150-150-150ZM300,425c-69.04,0-125-55.98-125-125s55.96-125,125-125,125,55.98,125,125-55.96,125-125,125Z"/></g></g></svg>