<?xml version="1.0" encoding="UTF-8"?><svg id="Layer_2" xmlns="http://www.w3.org/2000/svg" viewBox="0 0 799.99 627.93"><defs><style>.cls-1{fill:#316879;stroke-width:0px;}</style></defs><g id="Layer_2-2"><g id="_2"><path class="cls-1" d="M797.94,89.4c-3.61-18.17-11.66-34.79-22.91-48.52-2.37-2.99-4.85-5.67-7.54-8.35C747.57,12.49,719.6,0,689.04,0H110.98c-30.56,0-58.43,12.49-78.45,32.52-2.68,2.68-5.16,5.36-7.54,8.35-11.25,13.73-19.31,30.36-22.82,48.52-1.44,7.01-2.17,14.26-2.17,21.58v405.99c0,15.57,3.3,30.55,9.19,44.07,5.46,12.91,13.52,24.58,23.32,34.38,2.48,2.48,4.95,4.76,7.64,7.02,19.2,15.9,43.98,25.5,70.81,25.5h578.06c26.84,0,51.73-9.6,70.82-25.6,2.68-2.17,5.16-4.44,7.64-6.92,9.8-9.79,17.85-21.47,23.43-34.38v-.1c5.89-13.52,9.08-28.39,9.08-43.97V110.98c0-7.32-.71-14.57-2.06-21.58h0ZM72.68,72.67c9.91-9.9,23.23-15.9,38.3-15.9h578.06c15.07,0,28.5,6,38.3,15.9,1.75,1.76,3.4,3.73,4.86,5.68l-302.98,264.05c-8.36,7.32-18.68,10.94-29.21,10.94s-20.74-3.62-29.21-10.94L67.94,78.24c1.34-1.95,2.99-3.81,4.75-5.57h-.01ZM56.78,516.97V136.99l219.26,191.27-219.15,191.07c-.11-.72-.11-1.54-.11-2.37h0ZM689.04,571.15H110.98c-9.81,0-19-2.58-26.83-7.11l231.22-201.5,21.59,18.78c18.06,15.7,40.67,23.65,63.06,23.65s45.11-7.95,63.18-23.65l21.58-18.78,231.13,201.5c-7.85,4.53-17.03,7.11-26.85,7.11h-.02ZM743.24,516.97c0,.83,0,1.64-.11,2.37l-219.14-190.96,219.25-191.28v379.88h0Z"/></g></g></svg>