<?xml version="1.0" encoding="UTF-8"?><svg id="Layer_2" xmlns="http://www.w3.org/2000/svg" viewBox="0 0 666.68 666.65"><defs><style>.cls-1{fill:none;stroke:#316879;stroke-linecap:round;stroke-linejoin:round;stroke-width:66.67px;}</style></defs><g id="Layer_2-2"><g id="Layer_1-2"><path class="cls-1" d="M33.33,116.65c0,285.35,231.32,516.67,516.67,516.67,12.87,0,25.64-.47,38.28-1.4,14.5-1.06,21.75-1.59,28.36-5.39,5.47-3.15,10.65-8.73,13.39-14.41,3.31-6.86,3.31-14.86,3.31-30.87v-93.91c0-13.46,0-20.19-2.22-25.96-1.95-5.1-5.13-9.63-9.25-13.21-4.66-4.05-10.99-6.35-23.64-10.95l-106.89-38.87c-14.72-5.35-22.08-8.03-29.06-7.57-6.16.4-12.08,2.5-17.11,6.07-5.71,4.04-9.73,10.76-17.79,24.19l-27.37,45.62c-88.33-40-159.94-111.7-200-200l45.62-27.37c13.43-8.06,20.14-12.08,24.19-17.79,3.57-5.03,5.67-10.96,6.07-17.11.45-6.98-2.22-14.34-7.57-29.05l-38.87-106.89c-4.6-12.65-6.9-18.97-10.95-23.64-3.58-4.12-8.12-7.3-13.21-9.25-5.77-2.22-12.5-2.22-25.96-2.22h-93.91c-16,0-24.01,0-30.87,3.31-5.68,2.74-11.26,7.93-14.41,13.39-3.8,6.6-4.33,13.85-5.39,28.36-.93,12.64-1.4,25.4-1.4,38.28l-.02-.03Z"/></g></g></svg>