<?xml version="1.0" encoding="UTF-8"?><svg id="Layer_2" xmlns="http://www.w3.org/2000/svg" viewBox="0 0 560.17 552.37"><defs><style>.cls-1{fill:#f47a60;stroke-width:0px;}</style></defs><g id="Layer_1-2"><path class="cls-1" d="M0,267.22v-.78C7.02,175.82,39.85,107.84,96.88,64.87,153.12,21.12,214.07.02,280.47.02c69.53-.78,134.38,22.65,192.2,69.53,58.6,46.1,87.5,114.85,87.5,203.9v5.47c0,89.85-28.9,157.03-87.5,203.12-58.6,46.88-123.45,70.32-192.97,70.32h-3.12c-67.97-.78-130.47-24.22-188.28-71.1C30.47,435.17.8,364.07.02,267.19l-.02.02ZM263.28,144.57V21.12h-18.75c-3.9,4.7-7.03,10.15-10.15,14.85s-6.25,9.38-9.38,14.85c-3.12,4.7-7.03,10.95-9.38,15.62-3.12,4.7-5.47,9.38-7.82,14.85-4.7,7.82-8.6,15.62-11.72,22.65-3.9,7.03-7.03,14.07-9.38,20.32,4.7,3.12,10.15,7.03,16.4,9.38,7.03,2.35,14.07,4.7,21.1,6.25,7.82,1.57,14.85,2.35,21.1,3.12,7.03.78,13.28,1.57,17.97,1.57v-.02ZM296.1,21.14v122.65c3.9,0,8.6.78,13.28,0,4.7,0,10.15-.78,14.85-1.57,8.6-1.57,18.75-3.9,26.57-6.25,8.6-3.12,16.4-7.03,21.88-11.72-9.38-22.65-19.53-40.62-29.7-57.82s-21.88-32.03-34.38-44.53v-.78h-12.5v.02ZM211.72,28.17v-.78c-5.47,2.35-10.95,6.25-17.2,8.6-5.47,2.35-12.5,5.47-17.97,8.6-10.95,5.47-21.88,11.72-32.83,18.75-10.15,7.03-20.33,14.85-28.9,22.65,3.12,3.12,7.03,6.25,10.15,8.6s7.03,5.47,10.95,8.6c3.12,1.57,7.03,3.9,10.95,7.03,3.9,2.35,8.6,5.47,13.28,8.6,6.25-14.07,12.5-28.9,20.33-42.2,7.83-14.08,16.4-27.35,25-39.07.78-1.58,1.57-3.12,3.12-4.7.78-.78,1.57-3.12,3.12-4.7v.03ZM450.78,85.97v-.78c-19.53-14.85-36.72-27.35-53.9-35.15s-34.38-15.62-50-21.88c12.5,12.5,23.45,28.12,30.47,42.97,7.82,15.62,15.62,32.03,21.88,47.65,3.12-1.57,7.03-3.12,11.72-6.25,3.9-2.35,9.38-4.7,14.07-7.03,4.7-3.12,8.6-6.25,13.28-9.38,4.7-3.9,9.38-7.03,12.5-10.15l-.02-.02ZM437.5,260.19h89.85c0-28.9-6.25-56.25-17.97-84.38-10.95-27.35-26.57-50-46.1-69.53v-.78c-3.9,6.25-9.38,11.72-14.85,15.62-6.25,3.9-11.72,7.03-17.97,10.15-3.9,2.35-7.82,5.47-11.72,7.03-3.9,2.35-9.38,3.9-13.28,6.25,3.12,6.25,6.25,13.28,9.38,19.53,2.35,7.03,6.25,14.85,7.82,21.88,4.7,12.5,7.82,25.78,10.95,39.07,2.35,11.72,3.9,24.22,3.9,35.15ZM154.7,144.57v-.78c-6.25-3.12-13.28-5.47-18.75-8.6-5.47-3.9-10.95-7.82-15.62-10.95-4.7-2.35-9.38-5.47-13.28-8.6s-7.03-6.25-10.15-9.38c-20.32,19.53-35.15,41.4-44.52,67.2-10.15,25.78-17.2,54.7-20.32,85.95h96.1c0-21.88,3.12-42.97,8.6-64.07,4.7-21.88,11.72-38.28,17.97-50.78h-.02ZM263.28,259.42v-89.85c-6.25.78-14.07.78-21.1,0-7.82-.78-15.62-3.12-22.65-5.47-6.25-1.57-14.07-3.12-20.33-5.47-7.03-1.57-14.08-4.7-19.53-7.82-4.7,7.82-8.6,17.2-11.72,27.35-3.9,9.38-6.25,19.53-8.6,28.9-1.58,9.38-2.35,19.53-3.12,28.12s-1.58,17.2-1.58,24.22h108.6l.03.02ZM296.1,171.14v88.28h115.62c0-4.7,0-10.15-.78-16.4-1.57-5.47-2.35-12.5-3.12-18.75-2.35-9.38-4.7-19.53-7.82-28.9-3.12-8.6-6.25-17.2-10.15-24.22-1.57-3.9-3.12-8.6-4.7-11.72-2.35-3.9-4.7-6.25-6.25-8.6-8.6,6.25-20.32,10.15-34.38,13.28-13.28,3.12-28.9,6.25-42.97,7.03h-5.47l.02.02ZM128.12,285.19H32.02c0,13.28,2.35,28.12,6.25,46.1,3.9,18.75,11.72,35.95,20.32,54.7,3.9,9.38,8.6,18.75,13.28,28.12,5.48,8.6,11.73,17.97,17.97,26.57,4.7-3.12,9.38-5.47,13.28-7.82,4.7-2.35,10.15-5.47,14.85-7.82,5.47-2.35,10.95-4.7,17.2-7.82,5.47-2.35,12.5-5.47,19.53-8.6-6.25-19.53-13.28-38.28-17.97-59.38-5.47-20.32-8.6-40.62-8.6-63.28v-.78h0ZM263.28,376.59v-91.4h-108.6c0,6.25.78,15.62,2.35,25,.78,9.38,3.12,19.53,4.7,29.7,3.12,10.95,5.47,21.88,8.6,31.25s6.25,17.2,9.38,24.22c14.08-5.47,28.12-9.38,37.5-11.72,10.15-3.12,19.53-5.47,28.9-6.25h8.6c3.12-.78,6.25-.78,8.6-.78l-.02-.02ZM296.1,285.19v90.62c5.47.78,11.72,1.57,17.97,2.35,7.03.78,15.62,2.35,22.65,3.9l11.72,2.35c3.9,1.57,8.6,2.35,12.5,3.12,4.7,1.57,9.38,2.35,14.07,3.9,3.9,1.57,7.82,2.35,10.95,3.9,10.15-25.78,16.4-46.88,20.32-64.85,3.9-17.2,5.47-32.03,5.47-44.53v-.78h-115.67ZM527.35,285.97v-.78h-89.85v4.7c-.78,14.85-3.12,32.03-6.25,50-3.12,17.2-10.15,37.5-19.53,62.5,12.5,6.25,24.22,12.5,33.6,18.75s17.97,13.28,24.22,19.53c13.28-13.28,25-31.25,35.15-54.7,10.15-22.65,17.2-46.1,21.1-71.1.78-4.7.78-9.38,1.57-14.07v-14.85l-.02.02ZM263.28,523.47v-121.88c-19.53,3.12-35.95,7.03-48.45,10.15s-21.88,6.25-28.12,9.38c4.7,11.72,9.38,21.88,14.07,31.25,4.7,8.6,10.15,17.97,14.85,25.78,1.57,3.12,4.7,6.25,7.03,10.15,2.35,3.12,3.9,7.03,6.25,10.15,2.35,3.9,4.7,8.6,7.03,13.28,3.12,3.9,5.47,8.6,8.6,11.72h18.75v.02ZM296.1,523.47h17.97c7.03-5.47,14.07-13.28,19.53-21.88,6.25-8.6,13.28-18.75,17.97-27.35,5.47-10.15,10.95-19.53,15.62-28.9s8.6-17.97,11.72-24.22c-8.6-3.12-20.32-6.25-32.03-9.38s-28.12-6.25-50.78-9.38v121.1h-.02ZM450.78,459.42v-.78c-1.57-2.35-4.7-5.47-7.03-7.82s-6.25-5.47-10.15-7.82c-3.12-2.35-7.03-4.7-11.72-7.03s-10.95-5.47-16.4-8.6c-3.12,6.25-8.6,17.2-16.4,32.03-7.03,14.85-19.53,32.82-35.15,52.35,19.53-3.12,36.72-10.15,52.35-19.53,17.2-8.6,32.03-20.32,44.53-32.82l-.02.02ZM160.15,434.42v-.78c-5.47,3.12-14.08,7.03-22.65,10.95-9.38,3.9-19.53,8.6-28.9,14.85,5.47,4.7,10.95,9.38,15.62,12.5,4.7,3.9,10.15,7.03,14.85,10.15,8.6,5.47,18.75,10.95,28.9,15.62s22.65,9.38,38.28,14.07c-5.47-6.25-9.38-14.07-13.28-20.32s-8.6-12.5-12.5-18.75-7.03-13.28-10.15-19.53c-3.9-6.25-7.03-12.5-10.15-18.75l-.02-.02Z"/></g></svg>