<?xml version="1.0" encoding="UTF-8"?>
<svg id="Layer_1" xmlns="http://www.w3.org/2000/svg" viewBox="0 0 53 35">
  <defs>
    <style>
      .cls-1 {
        fill: #f47a60;
      }
    </style>
  </defs>
  <path class="cls-1" d="M12.17,32.76c-.2,1.12-.5,1.87-.91,2.24-1.73,0-3.76-.22-6.11-.67-2.35-.44-4.06-1.01-5.13-1.7-.02-.36-.03-.88-.03-1.55,0-3.21.38-6.25,1.13-9.13.06-.26.34-.6.84-1s.94-.6,1.33-.6c.38,1.81,1.05,3.63,2.03,5.45.98,1.83,2.09,3.37,3.33,4.63,1.24,1.26,2.41,2.03,3.51,2.33ZM15.77,0c-1.3,1.1-1.95,2.44-1.95,4.01s.43,3.14,1.29,4.71c.86,1.57,1.87,2.91,3.02,4.01,1.15,1.1,2.04,1.98,2.67,2.63.63.65,1.35,1.43,2.14,2.34.8.91,1.42,1.73,1.89,2.45,1.13,1.76,1.7,3.3,1.7,4.62s-.28,2.55-.83,3.69-1.33,2.17-2.34,3.1c-1.01.93-2.3,1.7-3.87,2.31-1.57.61-3.3.95-5.19,1.04.53-.76.79-1.55.79-2.38s-.17-1.68-.52-2.54c-.34-.86-.87-1.79-1.58-2.78-1.13-1.59-2.4-3.16-3.81-4.69-1.4-1.53-2.38-2.62-2.93-3.28-.55-.66-1.17-1.49-1.86-2.49-1.35-1.94-2.02-3.89-2.02-5.85s.6-3.77,1.8-5.45c1.2-1.68,2.82-3,4.87-3.97C11.1.51,13.34.02,15.77,0ZM23.98,14.9c0-1.59-.29-3.24-.86-4.93-1.13-3.31-3.02-5.97-5.67-7.99.03-.3.31-.65.84-1.06.53-.41.96-.62,1.31-.62,1.2,0,2.6.24,4.2.72,1.6.48,2.87.94,3.81,1.38.08.49.12,1.35.12,2.58s-.12,2.75-.35,4.59c-.23,1.83-.51,3.28-.84,4.35-.1.25-.45.47-1.05.68-.6.21-1.11.31-1.52.31Z"/>
  <path class="cls-1" d="M27.23,34.51c-1.81-10.97-4.02-21.62-6.63-31.97,0-.21.26-.53.79-.96.53-.43.99-.64,1.38-.64h11.73c.61,5.59,1.19,9.7,1.75,12.33.56,2.63,1.03,4.69,1.43,6.17.85,3.21,1.78,4.81,2.78,4.81.28,0,.56-.09.84-.27-1.05,2.07-2.42,5.04-4.09,8.9-.11.25-.41.58-.9,1-.49.42-.91.63-1.27.63h-7.81ZM43.02,5.35l-.07-2.81c0-.21.27-.53.8-.96.53-.43.99-.64,1.37-.64h7.89c-1.99,3.35-5.31,9.87-9.96,19.56-.12.26-.41.6-.89,1-.48.4-.9.6-1.26.6,1.41-5.18,2.12-10.76,2.12-16.75Z"/>
</svg>