<?xml version="1.0" encoding="UTF-8"?>
<svg id="Layer_1" xmlns="http://www.w3.org/2000/svg" viewBox="0 0 36.76 24.25">
  <defs>
    <style>
      .cls-1 {
        fill: #231f20;
      }
    </style>
  </defs>
  <path class="cls-1" d="M8.44,22.7c-.14.77-.35,1.29-.63,1.56-1.2,0-2.61-.15-4.24-.46-1.63-.31-2.81-.7-3.55-1.18-.01-.25-.02-.61-.02-1.08,0-2.22.26-4.33.79-6.32.04-.18.24-.41.58-.69s.65-.42.92-.42c.26,1.25.73,2.51,1.41,3.78.68,1.26,1.45,2.33,2.31,3.2.86.87,1.67,1.41,2.44,1.61ZM10.94,0c-.9.76-1.35,1.69-1.35,2.78s.3,2.18.9,3.26c.6,1.09,1.3,2.01,2.09,2.78.8.76,1.42,1.37,1.85,1.82.44.45.93.99,1.49,1.62.55.63.99,1.2,1.31,1.7.79,1.22,1.18,2.29,1.18,3.2s-.19,1.77-.57,2.56-.92,1.5-1.62,2.15c-.7.64-1.6,1.18-2.68,1.6-1.09.42-2.29.66-3.6.72.36-.52.55-1.07.55-1.65s-.12-1.16-.36-1.76c-.24-.6-.6-1.24-1.09-1.92-.79-1.1-1.67-2.19-2.64-3.25-.97-1.06-1.65-1.82-2.03-2.27-.38-.46-.81-1.03-1.29-1.73-.93-1.34-1.4-2.69-1.4-4.05s.42-2.61,1.25-3.78c.83-1.16,1.96-2.08,3.38-2.75C7.7.35,9.25.01,10.94,0ZM16.63,10.32c0-1.1-.2-2.24-.6-3.42-.79-2.29-2.1-4.14-3.93-5.54.02-.21.22-.45.58-.73.36-.28.67-.43.91-.43.83,0,1.8.17,2.91.5,1.11.33,1.99.65,2.64.96.06.34.09.94.09,1.79s-.08,1.91-.24,3.18c-.16,1.27-.35,2.28-.58,3.02-.07.17-.31.33-.73.47-.42.14-.77.21-1.05.21Z"/>
  <path class="cls-1" d="M18.88,23.91c-1.25-7.6-2.79-14.98-4.6-22.15,0-.15.18-.37.55-.67.36-.3.68-.44.96-.44h8.13c.42,3.87.83,6.72,1.21,8.54.39,1.82.72,3.25.99,4.27.59,2.22,1.24,3.33,1.93,3.33.19,0,.39-.06.58-.19-.73,1.44-1.68,3.49-2.84,6.17-.08.17-.29.4-.62.69-.34.29-.63.44-.88.44h-5.42ZM29.84,3.71l-.05-1.95c0-.15.18-.37.56-.67.37-.3.69-.44.95-.44h5.47c-1.38,2.32-3.68,6.84-6.9,13.55-.08.18-.29.41-.62.69-.33.28-.62.42-.87.42.98-3.59,1.47-7.46,1.47-11.6Z"/>
</svg>